<?xml version="1.0" standalone="no"?><svg xmlns:xlink="http://www.w3.org/1999/xlink" xmlns="http://www.w3.org/2000/svg" viewBox="0 0 1200 600" preserveAspectRatio="xMaxYMax slice"><g transform="scale(1.8867924528301887)"><rect x="0" y="0" width="636" height="318" fill="#E6E1DC"/><circle cx="26.5" cy="26.5" r="5.3" fill="#d3cec9"/><circle cx="79.5" cy="26.5" r="5.3" fill="#b0a9a4"/><g transform="translate(127.2,21.2) scale(0.53) rotate(0)"><path d="M10 0L20 10L10 20L0 10L10 0Z" fill="#413831"/></g><circle cx="503.5" cy="26.5" r="5.3" fill="#918a84"/><g transform="translate(551.2,21.2) scale(0.53) rotate(0)"><path d="M10 0L20 10L10 20L0 10L10 0Z" fill="#d0cbc5"/></g><g transform="translate(21.2,74.2) scale(0.53) rotate(0)"><path d="M10 0L20 10L10 20L0 10L10 0Z" fill="#beb8b2"/></g><g transform="translate(286.2,74.2) scale(0.53) rotate(0)"><path d="M10 0L20 10L10 20L0 10L10 0Z" fill="#504740"/></g><circle cx="397.5" cy="79.5" r="5.3" fill="#69615b"/><g transform="translate(551.2,74.2) scale(0.53) rotate(0)"><path d="M10 0L20 10L10 20L0 10L10 0Z" fill="#554d46"/></g><circle cx="609.5" cy="79.5" r="5.3" fill="#413831"/><circle cx="79.5" cy="132.5" r="5.3" fill="#a9a29c"/><circle cx="609.5" cy="132.5" r="5.3" fill="#aba59f"/><g transform="translate(180.2,180.2) scale(0.53) rotate(0)"><path d="M10 0L20 10L10 20L0 10L10 0Z" fill="#e3ded9"/></g><g transform="translate(339.2,180.2) scale(0.53) rotate(0)"><path d="M10 0L20 10L10 20L0 10L10 0Z" fill="#bdb7b2"/></g><circle cx="397.5" cy="185.5" r="5.3" fill="#aba59f"/><g transform="translate(498.2,180.2) scale(0.53) rotate(0)"><path d="M10 0L20 10L10 20L0 10L10 0Z" fill="#c6c0bb"/></g><circle cx="26.5" cy="238.5" r="5.3" fill="#79726b"/><g transform="translate(74.2,233.2) scale(0.53) rotate(0)"><path d="M10 0L20 10L10 20L0 10L10 0Z" fill="#584f49"/></g><g transform="translate(604.2,233.2) scale(0.53) rotate(0)"><path d="M10 0L20 10L10 20L0 10L10 0Z" fill="#655d57"/></g><g transform="translate(180.2,286.2) scale(0.53) rotate(0)"><path d="M10 0L20 10L10 20L0 10L10 0Z" fill="#837c76"/></g><g transform="translate(339.2,286.2) scale(0.53) rotate(0)"><path d="M10 0L20 10L10 20L0 10L10 0Z" fill="#e5e0db"/></g></g></svg>