<?xml version="1.0" standalone="no"?>
<!DOCTYPE svg PUBLIC "-//W3C//DTD SVG 20010904//EN"
 "http://www.w3.org/TR/2001/REC-SVG-20010904/DTD/svg10.dtd">
<svg version="1.0" xmlns="http://www.w3.org/2000/svg"
 width="256.000000pt" height="256.000000pt" viewBox="0 0 256.000000 256.000000"
 preserveAspectRatio="xMidYMid meet">
<metadata>
Created by potrace 1.16, written by Peter Selinger 2001-2019
</metadata>
<g transform="translate(0.000000,256.000000) scale(0.100000,-0.100000)"
fill="#000000" stroke="none">
<path d="M300 2138 c-49 -14 -97 -53 -120 -98 -19 -38 -20 -60 -20 -625 0
-565 1 -587 20 -625 24 -47 71 -84 125 -99 26 -7 213 -11 552 -11 452 0 513 2
527 16 19 18 20 28 6 55 -10 18 -27 19 -526 19 -560 0 -562 0 -599 56 -19 27
-20 51 -23 432 l-3 402 920 0 921 0 0 -98 c0 -103 7 -122 45 -122 43 0 45 11
45 285 0 230 -3 265 -19 300 -23 51 -79 101 -128 114 -51 14 -1674 13 -1723
-1z m1721 -101 c41 -28 59 -60 59 -109 l0 -38 -921 0 -921 0 7 47 c4 25 14 57
23 71 34 52 16 51 898 52 l821 0 34 -23z m59 -267 l0 -30 -920 0 -920 0 0 30
0 30 920 0 920 0 0 -30z"/>
<path d="M1660 1356 l-225 -73 -13 -39 c-7 -22 -16 -84 -19 -139 -11 -204 49
-378 177 -506 56 -55 89 -78 193 -130 l126 -62 83 38 c130 60 191 100 254 168
71 76 116 156 145 262 18 67 21 98 17 214 -6 199 12 180 -258 268 -124 40
-232 72 -240 72 -8 0 -116 -33 -240 -73z m639 -151 c11 -12 13 -222 2 -277
-33 -159 -138 -289 -300 -372 l-94 -49 -86 43 c-118 58 -174 101 -225 174 -54
77 -81 143 -97 231 -12 73 -7 231 10 248 5 5 96 37 202 71 l192 62 195 -62
c107 -35 197 -66 201 -69z"/>
<path d="M1991 974 l-104 -94 -53 50 c-53 50 -80 60 -102 38 -25 -25 -11 -54
62 -127 52 -51 79 -72 94 -69 24 4 268 215 277 240 10 28 -12 58 -43 57 -20 0
-55 -26 -131 -95z"/>
<path d="M417 1023 c-11 -11 -8 -58 5 -71 8 -8 60 -12 169 -12 130 0 160 3
173 16 19 18 21 45 4 62 -13 13 -339 18 -351 5z"/>
</g>
</svg>
