<?xml version="1.0" standalone="no"?>
<!DOCTYPE svg PUBLIC "-//W3C//DTD SVG 20010904//EN"
 "http://www.w3.org/TR/2001/REC-SVG-20010904/DTD/svg10.dtd">
<svg version="1.0" xmlns="http://www.w3.org/2000/svg"
 width="256.000000pt" height="256.000000pt" viewBox="0 0 256.000000 256.000000"
 preserveAspectRatio="xMidYMid meet">
<metadata>
Created by potrace 1.16, written by Peter Selinger 2001-2019
</metadata>
<g transform="translate(0.000000,256.000000) scale(0.100000,-0.100000)"
fill="#000000" stroke="none">
<path d="M1092 2540 c-95 -25 -149 -50 -232 -105 -130 -87 -236 -226 -287
-380 -25 -73 -27 -93 -27 -235 0 -142 2 -162 27 -235 35 -107 88 -192 170
-281 43 -47 63 -74 53 -74 -9 0 -67 -16 -129 -36 -287 -93 -518 -256 -602
-426 -57 -116 -65 -161 -65 -363 0 -168 2 -183 24 -230 34 -73 69 -110 138
-144 l61 -31 1057 0 1057 0 61 31 c69 34 104 71 138 144 22 47 24 62 24 230 0
202 -8 247 -65 362 -62 125 -210 254 -391 340 -60 28 -82 34 -112 30 -51 -9
-82 -46 -82 -100 0 -59 19 -81 110 -127 215 -107 310 -221 332 -398 12 -103 7
-229 -12 -258 -32 -51 15 -49 -1038 -52 -669 -2 -996 1 -1023 8 -54 15 -71 46
-77 138 -9 161 22 290 92 385 33 45 152 132 251 182 183 93 376 139 650 155
267 15 364 41 503 133 131 88 238 228 290 384 24 71 26 92 26 233 0 142 -2
162 -27 235 -38 115 -91 199 -182 290 -92 92 -176 144 -290 182 -111 36 -314
43 -423 13z m329 -206 c179 -53 320 -194 373 -373 9 -32 16 -91 16 -141 0
-147 -51 -271 -155 -375 -104 -104 -228 -155 -375 -155 -147 0 -271 51 -375
155 -104 104 -155 228 -155 375 0 235 142 429 370 507 81 28 219 31 301 7z"/>
</g>
</svg>
