<svg xmlns="http://www.w3.org/2000/svg" version="1.1" xmlns:xlink="http://www.w3.org/1999/xlink" xmlns:svgjs="http://svgjs.dev/svgjs" width="1000" height="106" viewBox="0 0 1000 106"><g transform="matrix(1,0,0,1,-0.6060605816743987,-0.5908044088178528)"><svg viewBox="0 0 396 42" data-background-color="#ffffff" preserveAspectRatio="xMidYMid meet" height="106" width="1000" xmlns="http://www.w3.org/2000/svg" xmlns:xlink="http://www.w3.org/1999/xlink"><g id="tight-bounds" transform="matrix(1,0,0,1,0.24000000965693857,0.23409231292782806)"><svg viewBox="0 0 395.5199999999999 41.53181537414432" height="41.53181537414432" width="395.5199999999999"><g><svg viewBox="0 0 450.96264019659543 47.35360313835376" height="41.53181537414432" width="395.5199999999999"><g transform="matrix(1,0,0,1,0,6.544528364273205)"><svg viewBox="0 0 395.52 34.26454640980735" height="34.26454640980735" width="395.52"><g id="textblocktransform"><svg viewBox="0 0 395.52 34.26454640980735" height="34.26454640980735" width="395.52" id="textblock"><g><svg viewBox="0 0 395.52 34.26454640980735" height="34.26454640980735" width="395.52"><g transform="matrix(1,0,0,1,0,0)"><svg width="395.52" viewBox="1.350000023841858 -36.54999923706055 428.2200012207031 37.099998474121094" height="34.26454640980735" data-palette-color="#551e19"><path d="M29.35-13.45L29.35-13.45 29.35-32.3 25.15-33.35 25.15-36 37.7-36 37.7-33.35 33.5-32.3 33.5-12.15Q33.5-5.95 29.9-2.7 26.3 0.55 19.35 0.55L19.35 0.55Q12.7 0.55 9.13-2.78 5.55-6.1 5.55-12.2L5.55-12.2 5.55-32.3 1.35-33.35 1.35-36 15.75-36 15.75-33.35 11.55-32.3 11.55-13.55Q11.55-2.7 20.45-2.7L20.45-2.7Q25.15-2.7 27.25-5.25 29.35-7.8 29.35-13.45ZM66.9-19.1L66.9-19.1Q66-18.4 64.85-17.8 63.7-17.2 61.95-16.8L61.95-16.8Q62.3-16.5 62.82-15.85 63.35-15.2 63.85-14.35L63.85-14.35 70.2-3.6 74.65-2.65 74.65 0 63.35 0 63.35-2.65 56.6-15.9 51.35-15.9 51.35-3.7 56.1-2.65 56.1 0 41.15 0 41.15-2.65 45.35-3.7 45.35-32.3 41.15-33.35 41.15-36 59.35-36Q61.75-36 63.57-35.55 65.4-35.1 66.8-34.1L66.8-34.1Q68.65-32.85 69.67-30.78 70.7-28.7 70.7-26.6L70.7-26.6Q70.7-24.5 69.67-22.48 68.65-20.45 66.9-19.1ZM51.35-32.6L51.35-19.3 57.5-19.3Q60.25-19.3 62.05-20.85L62.05-20.85Q63.05-21.7 63.62-23.15 64.2-24.6 64.2-26.3L64.2-26.3Q64.2-27.9 63.62-29.18 63.05-30.45 62-31.3L62-31.3Q61.15-32 60.02-32.3 58.9-32.6 57.3-32.6L57.3-32.6 51.35-32.6ZM105.45-27.35L105.45-27.35Q105.45-25.45 104.57-23.8 103.7-22.15 102.2-21.05 100.7-19.95 98.75-19.7L98.75-19.7 98.75-19.5Q102.65-18.7 104.9-16.2 107.15-13.7 107.15-10.05L107.15-10.05Q107.15-7.25 105.67-4.88 104.2-2.5 101.95-1.35L101.95-1.35Q100.55-0.65 98.5-0.33 96.45 0 92.75 0L92.75 0 76.8 0 76.8-2.65 81-3.7 81-32.3 76.8-33.35 76.8-36 94.6-36Q99.85-36 102.7-33.45L102.7-33.45Q104-32.25 104.72-30.65 105.45-29.05 105.45-27.35ZM92.4-17.1L92.4-17.1 87-17.1 87-3.5 91.5-3.5Q93.8-3.5 95.2-3.75 96.6-4 97.55-4.55L97.55-4.55Q98.9-5.3 99.75-6.85 100.6-8.4 100.6-10.45L100.6-10.45Q100.6-12.25 99.95-13.53 99.3-14.8 98.3-15.65L98.3-15.65Q97.4-16.35 96-16.73 94.6-17.1 92.4-17.1ZM92.45-32.6L87-32.6 87-20.5 92.25-20.5Q95.75-20.5 97.4-22.25L97.4-22.25Q98.15-22.95 98.7-24.1 99.25-25.25 99.25-26.7L99.25-26.7Q99.25-28.1 98.7-29.25 98.15-30.4 97.4-31.1L97.4-31.1Q95.9-32.6 92.45-32.6L92.45-32.6ZM130.59-2.65L134.69-3.7 131.99-11.85 119.39-11.85 116.64-3.7 120.79-2.65 120.79 0 108.09 0 108.09-2.65 112.19-3.7 123.99-36.5 129.64-36.5 141.34-3.7 145.34-2.65 145.34 0 130.59 0 130.59-2.65ZM125.99-30.6L125.79-30.6 120.54-15.25 130.89-15.25 125.99-30.6ZM147.09-2.65L151.29-3.7 151.29-32.3 147.09-33.35 147.09-36 157.99-36 175.34-9.2 175.34-32.3 171.14-33.35 171.14-36 183.79-36 183.79-33.35 179.59-32.3 179.59 0 174.74 0 155.54-29.1 155.54-3.7 159.74-2.65 159.74 0 147.09 0 147.09-2.65ZM222.04-24.55L222.04-11.35 218.49-11.35 217.64-16.2 210.29-16.2 210.29-3.85 216.14-2.9 216.14 0 199.59 0 199.59-2.65 204.29-3.85 204.29-32.3 199.59-33.35 199.59-36 228.74-36 228.74-25.3 225.04-25.3 223.44-32.6 210.29-32.6 210.29-19.7 217.64-19.7 218.49-24.55 222.04-24.55ZM248.48-2.65L252.58-3.7 249.88-11.85 237.28-11.85 234.53-3.7 238.68-2.65 238.68 0 225.98 0 225.98-2.65 230.08-3.7 241.88-36.5 247.53-36.5 259.23-3.7 263.23-2.65 263.23 0 248.48 0 248.48-2.65ZM243.88-30.6L243.68-30.6 238.43-15.25 248.78-15.25 243.88-30.6ZM278.93 0.55L278.93 0.55Q276.03 0.55 273.91-0.3 271.78-1.15 270.23-2.9L270.23-2.9 269.68 0 265.88 0 265.88-11.85 269.93-11.85Q270.23-6.95 272.36-4.83 274.48-2.7 278.28-2.7L278.28-2.7Q281.33-2.7 283.08-3.95 284.83-5.2 284.83-7.8L284.83-7.8Q284.83-9.85 283.71-11.23 282.58-12.6 280.56-13.68 278.53-14.75 275.83-15.85L275.83-15.85Q272.68-17.15 270.48-18.48 268.28-19.8 267.16-21.68 266.03-23.55 266.03-26.45L266.03-26.45Q266.03-31.25 269.01-33.9 271.98-36.55 276.98-36.55L276.98-36.55Q281.93-36.55 285.03-33.75L285.03-33.75 285.43-36 289.23-36 289.23-24.15 285.38-24.15Q285.38-28.9 283.61-31.13 281.83-33.35 278.13-33.35L278.13-33.35Q272.08-33.35 272.08-27.7L272.08-27.7Q272.08-26 272.73-24.93 273.38-23.85 275.01-22.95 276.63-22.05 279.43-20.8L279.43-20.8Q283.63-18.95 286.16-17.3 288.68-15.65 289.78-13.8 290.88-11.95 290.88-9.45L290.88-9.45Q290.88-6.2 289.31-3.95 287.73-1.7 285.03-0.58 282.33 0.55 278.93 0.55ZM331.73-33.35L327.53-32.3 327.53-3.7 331.73-2.65 331.73 0 317.33 0 317.33-2.65 321.53-3.7 321.53-16.8 305.58-16.8 305.58-3.7 309.78-2.65 309.78 0 295.38 0 295.38-2.65 299.58-3.7 299.58-32.3 295.38-33.35 295.38-36 309.78-36 309.78-33.35 305.58-32.3 305.58-20.2 321.53-20.2 321.53-32.3 317.33-33.35 317.33-36 331.73-36 331.73-33.35ZM351.23-33.35L346.53-32.3 346.53-3.7 351.23-2.65 351.23 0 335.82 0 335.82-2.65 340.53-3.7 340.53-32.3 335.82-33.35 335.82-36 351.23-36 351.23-33.35ZM388.87-18.4L388.87-18.4Q388.87-14.2 387.65-10.35 386.42-6.5 383.87-3.85L383.87-3.85Q381.77-1.65 378.82-0.58 375.87 0.5 371.82 0.5L371.82 0.5Q367.72 0.5 364.77-0.55 361.82-1.6 359.77-3.7L359.77-3.7Q357.57-6 356.27-9.63 354.97-13.25 354.97-17.6L354.97-17.6Q354.97-21.95 356.3-25.78 357.62-29.6 359.97-32.15L359.97-32.15Q362.07-34.4 364.97-35.45 367.87-36.5 371.92-36.5L371.92-36.5Q375.87-36.5 378.87-35.5 381.87-34.5 384.02-32.3L384.02-32.3Q386.57-29.75 387.72-26.1 388.87-22.45 388.87-18.4ZM361.72-18.55L361.72-18.55Q361.72-14.6 362.45-11.53 363.17-8.45 364.42-6.5L364.42-6.5Q365.67-4.65 367.52-3.7 369.37-2.75 372.07-2.75L372.07-2.75Q376.97-2.75 379.42-6.05L379.42-6.05Q380.72-7.85 381.42-10.78 382.12-13.7 382.12-17.7L382.12-17.7Q382.12-21.7 381.42-24.7 380.72-27.7 379.37-29.6L379.37-29.6Q378.07-31.5 376.15-32.4 374.22-33.3 371.77-33.3L371.77-33.3Q369.32-33.3 367.52-32.45 365.72-31.6 364.52-30L364.52-30Q361.72-26.3 361.72-18.55ZM392.87-2.65L397.07-3.7 397.07-32.3 392.87-33.35 392.87-36 403.77-36 421.12-9.2 421.12-32.3 416.92-33.35 416.92-36 429.57-36 429.57-33.35 425.37-32.3 425.37 0 420.52 0 401.32-29.1 401.32-3.7 405.52-2.65 405.52 0 392.87 0 392.87-2.65Z" opacity="1" transform="matrix(1,0,0,1,0,0)" fill="#551e19" class="wordmark-text-0" data-fill-palette-color="primary" id="text-0"></path></svg></g></svg></g></svg></g></svg></g><g transform="matrix(1,0,0,1,403.60903705824165,0)"><svg viewBox="0 0 47.35360313835376 47.35360313835376" height="47.35360313835376" width="47.35360313835376"><g data-palette-color="#c56e33"><rect width="12.943318191150027" height="47.35360313835376" fill="#c56e33" stroke="transparent" data-fill-palette-color="accent" x="0" fill-opacity="1"></rect><rect width="12.943318191150027" height="47.35360313835376" fill="#c56e33" stroke="transparent" data-fill-palette-color="accent" x="15.784534379451252" fill-opacity="0.75"></rect><rect width="12.943318191150027" height="47.35360313835376" fill="#c56e33" stroke="transparent" data-fill-palette-color="accent" x="31.569068758902503" fill-opacity="0.5"></rect></g></svg></g></svg></g><defs></defs></svg><rect width="395.5199999999999" height="41.53181537414432" fill="none" stroke="none" visibility="hidden"></rect></g></svg></g></svg>